<mxfile host="Electron" agent="Mozilla/5.0 (Macintosh; Intel Mac OS X 10_15_7) AppleWebKit/537.36 (KHTML, like Gecko) draw.io/27.0.5 Chrome/134.0.6998.205 Electron/35.3.0 Safari/537.36" version="27.0.5">
  <diagram name="Страница — 1" id="8UcqTXrp8WYUCO0T8Co5">
    <mxGraphModel dx="1234" dy="794" grid="1" gridSize="10" guides="1" tooltips="1" connect="1" arrows="1" fold="1" page="1" pageScale="1" pageWidth="4000" pageHeight="3000" math="0" shadow="0">
      <root>
        <mxCell id="0" />
        <mxCell id="1" parent="0" />
        <mxCell id="ffuKHzGNtkADII17fWWy-15" style="edgeStyle=orthogonalEdgeStyle;rounded=0;orthogonalLoop=1;jettySize=auto;html=1;strokeColor=light-dark(#000000,#FFD966);fillColor=#d80073;entryX=0;entryY=0.5;entryDx=0;entryDy=0;dashed=1;" parent="1" source="ffuKHzGNtkADII17fWWy-1" target="ffuKHzGNtkADII17fWWy-3" edge="1">
          <mxGeometry relative="1" as="geometry" />
        </mxCell>
        <mxCell id="ffuKHzGNtkADII17fWWy-45" style="edgeStyle=orthogonalEdgeStyle;rounded=0;orthogonalLoop=1;jettySize=auto;html=1;exitX=0.5;exitY=0;exitDx=0;exitDy=0;entryX=0;entryY=0.5;entryDx=0;entryDy=0;strokeColor=#FFD966;dashed=1;" parent="1" source="ffuKHzGNtkADII17fWWy-1" target="ffuKHzGNtkADII17fWWy-7" edge="1">
          <mxGeometry relative="1" as="geometry" />
        </mxCell>
        <mxCell id="ffuKHzGNtkADII17fWWy-1" value="&lt;font style=&quot;font-size: 15px;&quot;&gt;Order service&lt;/font&gt;&lt;div&gt;&lt;font style=&quot;font-size: 15px;&quot;&gt;port: 8200&lt;/font&gt;&lt;/div&gt;" style="html=1;whiteSpace=wrap;" parent="1" vertex="1">
          <mxGeometry x="600" y="520" width="160" height="80" as="geometry" />
        </mxCell>
        <mxCell id="ffuKHzGNtkADII17fWWy-3" value="&lt;font style=&quot;font-size: 15px;&quot;&gt;Delivery service&lt;/font&gt;&lt;div&gt;&lt;font style=&quot;font-size: 15px;&quot;&gt;port: 8205&lt;/font&gt;&lt;/div&gt;" style="html=1;whiteSpace=wrap;" parent="1" vertex="1">
          <mxGeometry x="960" y="520" width="160" height="80" as="geometry" />
        </mxCell>
        <mxCell id="ffuKHzGNtkADII17fWWy-22" style="edgeStyle=orthogonalEdgeStyle;rounded=0;orthogonalLoop=1;jettySize=auto;html=1;strokeColor=light-dark(#000000,#66FF66);entryX=0.25;entryY=1;entryDx=0;entryDy=0;dashed=1;" parent="1" source="ffuKHzGNtkADII17fWWy-4" target="ffuKHzGNtkADII17fWWy-6" edge="1">
          <mxGeometry relative="1" as="geometry">
            <mxPoint x="840" y="1090" as="targetPoint" />
            <Array as="points">
              <mxPoint x="440" y="960" />
              <mxPoint x="640" y="960" />
            </Array>
          </mxGeometry>
        </mxCell>
        <mxCell id="ffuKHzGNtkADII17fWWy-4" value="&lt;font style=&quot;font-size: 15px;&quot;&gt;Client&lt;/font&gt;&lt;span style=&quot;font-size: 15px; background-color: transparent; color: light-dark(rgb(0, 0, 0), rgb(255, 255, 255));&quot;&gt;&amp;nbsp;service&lt;/span&gt;&lt;div&gt;&lt;span style=&quot;font-size: 15px; background-color: transparent; color: light-dark(rgb(0, 0, 0), rgb(255, 255, 255));&quot;&gt;port: 8202&lt;/span&gt;&lt;/div&gt;" style="html=1;whiteSpace=wrap;" parent="1" vertex="1">
          <mxGeometry x="400" y="720" width="160" height="80" as="geometry" />
        </mxCell>
        <mxCell id="ffuKHzGNtkADII17fWWy-5" value="&lt;font style=&quot;font-size: 15px;&quot;&gt;Product service&lt;/font&gt;&lt;div&gt;&lt;font style=&quot;font-size: 15px;&quot;&gt;port: 8204&lt;/font&gt;&lt;/div&gt;" style="html=1;whiteSpace=wrap;" parent="1" vertex="1">
          <mxGeometry x="800" y="720" width="160" height="80" as="geometry" />
        </mxCell>
        <mxCell id="ffuKHzGNtkADII17fWWy-6" value="&lt;font style=&quot;font-size: 15px;&quot;&gt;Cache&lt;/font&gt;&lt;span style=&quot;font-size: 15px; background-color: transparent; color: light-dark(rgb(0, 0, 0), rgb(255, 255, 255));&quot;&gt;&amp;nbsp;service&lt;/span&gt;&lt;div&gt;&lt;span style=&quot;font-size: 15px; background-color: transparent; color: light-dark(rgb(0, 0, 0), rgb(255, 255, 255));&quot;&gt;port: 8201&lt;/span&gt;&lt;/div&gt;" style="html=1;whiteSpace=wrap;" parent="1" vertex="1">
          <mxGeometry x="600" y="840" width="160" height="80" as="geometry" />
        </mxCell>
        <mxCell id="ffuKHzGNtkADII17fWWy-37" style="edgeStyle=orthogonalEdgeStyle;rounded=0;orthogonalLoop=1;jettySize=auto;html=1;entryX=0.75;entryY=0;entryDx=0;entryDy=0;strokeColor=#FFD966;dashed=1;" parent="1" source="ffuKHzGNtkADII17fWWy-7" target="ffuKHzGNtkADII17fWWy-1" edge="1">
          <mxGeometry relative="1" as="geometry">
            <mxPoint x="1120" y="720" as="targetPoint" />
            <Array as="points">
              <mxPoint x="920" y="480" />
              <mxPoint x="720" y="480" />
            </Array>
          </mxGeometry>
        </mxCell>
        <mxCell id="ffuKHzGNtkADII17fWWy-7" value="&lt;span style=&quot;font-size: 15px; background-color: transparent; color: light-dark(rgb(0, 0, 0), rgb(255, 255, 255));&quot;&gt;Payment&lt;/span&gt;&lt;span style=&quot;background-color: transparent; color: light-dark(rgb(0, 0, 0), rgb(255, 255, 255)); font-size: 15px;&quot;&gt;&amp;nbsp;service&lt;/span&gt;&lt;div&gt;&lt;span style=&quot;background-color: transparent; color: light-dark(rgb(0, 0, 0), rgb(255, 255, 255)); font-size: 15px;&quot;&gt;port: 8203&lt;/span&gt;&lt;/div&gt;" style="html=1;whiteSpace=wrap;" parent="1" vertex="1">
          <mxGeometry x="840" y="360" width="160" height="80" as="geometry" />
        </mxCell>
        <mxCell id="ffuKHzGNtkADII17fWWy-9" value="" style="endArrow=classic;html=1;rounded=0;entryX=0;entryY=0.5;entryDx=0;entryDy=0;fontColor=light-dark(#000000,#FFFFFF);strokeColor=light-dark(#000000,#FF5900);" parent="1" target="ffuKHzGNtkADII17fWWy-1" edge="1">
          <mxGeometry width="50" height="50" relative="1" as="geometry">
            <mxPoint x="440" y="560" as="sourcePoint" />
            <mxPoint x="970" y="770" as="targetPoint" />
            <Array as="points">
              <mxPoint x="520" y="560" />
            </Array>
          </mxGeometry>
        </mxCell>
        <mxCell id="ffuKHzGNtkADII17fWWy-11" value="" style="endArrow=classic;html=1;rounded=0;exitX=0.5;exitY=1;exitDx=0;exitDy=0;strokeColor=light-dark(#000000,#FF5900);entryX=0.5;entryY=0;entryDx=0;entryDy=0;" parent="1" source="ffuKHzGNtkADII17fWWy-1" target="ffuKHzGNtkADII17fWWy-6" edge="1">
          <mxGeometry width="50" height="50" relative="1" as="geometry">
            <mxPoint x="920" y="820" as="sourcePoint" />
            <mxPoint x="717" y="1040" as="targetPoint" />
            <Array as="points">
              <mxPoint x="680" y="780" />
            </Array>
          </mxGeometry>
        </mxCell>
        <mxCell id="ffuKHzGNtkADII17fWWy-12" value="" style="endArrow=classic;html=1;rounded=0;exitX=0.25;exitY=1;exitDx=0;exitDy=0;entryX=0.25;entryY=0;entryDx=0;entryDy=0;strokeColor=light-dark(#000000,#FF5900);" parent="1" source="ffuKHzGNtkADII17fWWy-1" target="ffuKHzGNtkADII17fWWy-6" edge="1">
          <mxGeometry width="50" height="50" relative="1" as="geometry">
            <mxPoint x="920" y="820" as="sourcePoint" />
            <mxPoint x="970" y="770" as="targetPoint" />
            <Array as="points">
              <mxPoint x="640" y="820" />
            </Array>
          </mxGeometry>
        </mxCell>
        <mxCell id="ffuKHzGNtkADII17fWWy-20" style="edgeStyle=orthogonalEdgeStyle;rounded=0;orthogonalLoop=1;jettySize=auto;html=1;entryX=0.75;entryY=1;entryDx=0;entryDy=0;strokeColor=#66FF66;exitX=0.75;exitY=1;exitDx=0;exitDy=0;dashed=1;" parent="1" source="ffuKHzGNtkADII17fWWy-5" target="ffuKHzGNtkADII17fWWy-6" edge="1">
          <mxGeometry relative="1" as="geometry">
            <mxPoint x="930" y="900" as="sourcePoint" />
            <Array as="points">
              <mxPoint x="920" y="960" />
              <mxPoint x="720" y="960" />
            </Array>
          </mxGeometry>
        </mxCell>
        <mxCell id="ffuKHzGNtkADII17fWWy-35" style="edgeStyle=orthogonalEdgeStyle;rounded=0;orthogonalLoop=1;jettySize=auto;html=1;entryX=0.75;entryY=1;entryDx=0;entryDy=0;strokeColor=#FFD966;exitX=0.5;exitY=1;exitDx=0;exitDy=0;dashed=1;" parent="1" source="ffuKHzGNtkADII17fWWy-3" target="ffuKHzGNtkADII17fWWy-1" edge="1">
          <mxGeometry relative="1" as="geometry">
            <mxPoint x="960" y="720" as="sourcePoint" />
            <Array as="points">
              <mxPoint x="1040" y="640" />
              <mxPoint x="720" y="640" />
            </Array>
          </mxGeometry>
        </mxCell>
        <mxCell id="ffuKHzGNtkADII17fWWy-18" style="edgeStyle=orthogonalEdgeStyle;rounded=0;orthogonalLoop=1;jettySize=auto;html=1;strokeColor=light-dark(#000000,#FF5900);exitX=0;exitY=0.5;exitDx=0;exitDy=0;" parent="1" source="ffuKHzGNtkADII17fWWy-6" edge="1">
          <mxGeometry relative="1" as="geometry">
            <mxPoint x="680" y="920" as="sourcePoint" />
            <mxPoint x="480" y="800" as="targetPoint" />
            <Array as="points">
              <mxPoint x="480" y="880" />
              <mxPoint x="480" y="800" />
            </Array>
          </mxGeometry>
        </mxCell>
        <mxCell id="ffuKHzGNtkADII17fWWy-23" value="1 POST create-order" style="text;align=center;fontStyle=1;verticalAlign=middle;spacingLeft=3;spacingRight=3;rotatable=0;points=[[0,0.5],[1,0.5]];portConstraint=eastwest;html=1;fontColor=light-dark(#000000,#FF5900);" parent="1" vertex="1">
          <mxGeometry x="440" y="530" width="160" height="20" as="geometry" />
        </mxCell>
        <mxCell id="ffuKHzGNtkADII17fWWy-24" value="2 GET info" style="text;align=center;fontStyle=1;verticalAlign=middle;spacingLeft=3;spacingRight=3;strokeColor=none;rotatable=0;points=[[0,0.5],[1,0.5]];portConstraint=eastwest;html=1;fontColor=light-dark(#000000,#FF5900);" parent="1" vertex="1">
          <mxGeometry x="520" y="690" width="160" height="20" as="geometry" />
        </mxCell>
        <mxCell id="ffuKHzGNtkADII17fWWy-25" value="2 GET info" style="text;align=center;fontStyle=1;verticalAlign=middle;spacingLeft=3;spacingRight=3;strokeColor=none;rotatable=0;points=[[0,0.5],[1,0.5]];portConstraint=eastwest;html=1;fontColor=light-dark(#000000,#FF5900);" parent="1" vertex="1">
          <mxGeometry x="640" y="690" width="160" height="20" as="geometry" />
        </mxCell>
        <mxCell id="ffuKHzGNtkADII17fWWy-26" value="2 GET info&lt;div&gt;(cache miss)&lt;/div&gt;" style="text;align=center;fontStyle=1;verticalAlign=middle;spacingLeft=3;spacingRight=3;strokeColor=none;rotatable=0;points=[[0,0.5],[1,0.5]];portConstraint=eastwest;html=1;fontColor=light-dark(#000000,#FF5900);" parent="1" vertex="1">
          <mxGeometry x="460" y="850" width="160" height="20" as="geometry" />
        </mxCell>
        <mxCell id="ffuKHzGNtkADII17fWWy-27" value="2 GET info&lt;div&gt;(cache miss)&lt;/div&gt;" style="text;align=center;fontStyle=1;verticalAlign=middle;spacingLeft=3;spacingRight=3;strokeColor=none;rotatable=0;points=[[0,0.5],[1,0.5]];portConstraint=eastwest;html=1;fontColor=light-dark(#000000,#FF5900);" parent="1" vertex="1">
          <mxGeometry x="740" y="850" width="160" height="20" as="geometry" />
        </mxCell>
        <mxCell id="ffuKHzGNtkADII17fWWy-28" value="JMS update client info" style="text;align=center;fontStyle=1;verticalAlign=middle;spacingLeft=3;spacingRight=3;strokeColor=none;rotatable=0;points=[[0,0.5],[1,0.5]];portConstraint=eastwest;html=1;fontColor=#66FF66;" parent="1" vertex="1">
          <mxGeometry x="460" y="930" width="160" height="20" as="geometry" />
        </mxCell>
        <mxCell id="ffuKHzGNtkADII17fWWy-32" value="3 JMS create-payment" style="text;align=center;fontStyle=1;verticalAlign=middle;spacingLeft=3;spacingRight=3;strokeColor=none;rotatable=0;points=[[0,0.5],[1,0.5]];portConstraint=eastwest;html=1;fontColor=light-dark(#000000,#FFD966);" parent="1" vertex="1">
          <mxGeometry x="670" y="370" width="160" height="20" as="geometry" />
        </mxCell>
        <mxCell id="ffuKHzGNtkADII17fWWy-36" value="4 JMS update&amp;nbsp;&lt;span style=&quot;background-color: transparent;&quot;&gt;status&lt;/span&gt;" style="text;align=center;fontStyle=1;verticalAlign=middle;spacingLeft=3;spacingRight=3;strokeColor=none;rotatable=0;points=[[0,0.5],[1,0.5]];portConstraint=eastwest;html=1;fontColor=#FFD966;" parent="1" vertex="1">
          <mxGeometry x="800" y="610" width="160" height="20" as="geometry" />
        </mxCell>
        <mxCell id="ffuKHzGNtkADII17fWWy-38" value="3 JMS update status" style="text;align=center;fontStyle=1;verticalAlign=middle;spacingLeft=3;spacingRight=3;strokeColor=none;rotatable=0;points=[[0,0.5],[1,0.5]];portConstraint=eastwest;html=1;fontColor=#FFD966;" parent="1" vertex="1">
          <mxGeometry x="740" y="450" width="160" height="20" as="geometry" />
        </mxCell>
        <mxCell id="ffuKHzGNtkADII17fWWy-39" value="&lt;font style=&quot;color: rgb(255, 217, 102);&quot;&gt;4 JMS create-delivery&lt;/font&gt;" style="text;align=center;fontStyle=1;verticalAlign=middle;spacingLeft=3;spacingRight=3;strokeColor=none;rotatable=0;points=[[0,0.5],[1,0.5]];portConstraint=eastwest;html=1;fontColor=light-dark(#000000,#FF0000);" parent="1" vertex="1">
          <mxGeometry x="780" y="530" width="160" height="20" as="geometry" />
        </mxCell>
        <mxCell id="ffuKHzGNtkADII17fWWy-40" value="" style="endArrow=classic;html=1;rounded=0;entryX=0.25;entryY=0;entryDx=0;entryDy=0;strokeColor=light-dark(#000000,#FF5900);" parent="1" target="ffuKHzGNtkADII17fWWy-1" edge="1">
          <mxGeometry width="50" height="50" relative="1" as="geometry">
            <mxPoint x="480" y="440" as="sourcePoint" />
            <mxPoint x="640" y="440" as="targetPoint" />
            <Array as="points">
              <mxPoint x="640" y="440" />
            </Array>
          </mxGeometry>
        </mxCell>
        <mxCell id="ffuKHzGNtkADII17fWWy-41" value="5 GET info" style="text;align=center;fontStyle=1;verticalAlign=middle;spacingLeft=3;spacingRight=3;strokeColor=none;rotatable=0;points=[[0,0.5],[1,0.5]];portConstraint=eastwest;html=1;fontColor=light-dark(#000000,#FF5900);" parent="1" vertex="1">
          <mxGeometry x="480" y="410" width="160" height="20" as="geometry" />
        </mxCell>
        <mxCell id="ffuKHzGNtkADII17fWWy-42" value="JMS update product info" style="text;align=center;fontStyle=1;verticalAlign=middle;spacingLeft=3;spacingRight=3;strokeColor=none;rotatable=0;points=[[0,0.5],[1,0.5]];portConstraint=eastwest;html=1;fontColor=#66FF66;" parent="1" vertex="1">
          <mxGeometry x="740" y="930" width="160" height="20" as="geometry" />
        </mxCell>
        <mxCell id="ffuKHzGNtkADII17fWWy-48" style="edgeStyle=orthogonalEdgeStyle;rounded=0;orthogonalLoop=1;jettySize=auto;html=1;strokeColor=light-dark(#000000,#FF5900);exitX=1;exitY=0.5;exitDx=0;exitDy=0;entryX=0.5;entryY=1;entryDx=0;entryDy=0;" parent="1" source="ffuKHzGNtkADII17fWWy-6" target="ffuKHzGNtkADII17fWWy-5" edge="1">
          <mxGeometry relative="1" as="geometry">
            <mxPoint x="910" y="950" as="sourcePoint" />
            <mxPoint x="790" y="870" as="targetPoint" />
            <Array as="points">
              <mxPoint x="880" y="880" />
            </Array>
          </mxGeometry>
        </mxCell>
      </root>
    </mxGraphModel>
  </diagram>
</mxfile>
